<?xml version="1.0" standalone="no"?>
<!DOCTYPE svg PUBLIC "-//W3C//DTD SVG 20010904//EN"
 "http://www.w3.org/TR/2001/REC-SVG-20010904/DTD/svg10.dtd">
<svg version="1.0" xmlns="http://www.w3.org/2000/svg"
 width="512.000000pt" height="512.000000pt" viewBox="0 0 512.000000 512.000000"
 preserveAspectRatio="xMidYMid meet">

<g transform="translate(0.000000,512.000000) scale(0.100000,-0.100000)"
fill="#000000" stroke="none">
<path d="M2413 4898 c-779 -1184 -1258 -2187 -1394 -2918 -26 -137 -36 -428
-20 -553 84 -631 499 -1151 1076 -1345 434 -147 924 -86 1305 159 472 305 750
820 751 1387 0 180 -20 332 -66 522 -147 597 -468 1299 -995 2175 -196 325
-495 785 -511 785 -3 0 -70 -96 -146 -212z"/>
</g>
</svg>
