<?xml version="1.0" standalone="no"?>
<!DOCTYPE svg PUBLIC "-//W3C//DTD SVG 20010904//EN"
 "http://www.w3.org/TR/2001/REC-SVG-20010904/DTD/svg10.dtd">
<svg version="1.0" xmlns="http://www.w3.org/2000/svg"
 width="512.000000pt" height="512.000000pt" viewBox="0 0 512.000000 512.000000"
 preserveAspectRatio="xMidYMid meet">

<g transform="translate(0.000000,512.000000) scale(0.100000,-0.100000)"
fill="#000000" stroke="none">
<path d="M3021 4559 c-211 -106 -633 -660 -991 -1305 -133 -239 -223 -436
-224 -487 -1 -83 112 -134 169 -76 13 13 70 116 127 229 256 505 686 1164 897
1378 40 40 78 72 86 72 35 0 256 -255 412 -476 418 -592 726 -1183 834 -1604
106 -409 -21 -851 -336 -1165 -243 -243 -559 -375 -900 -375 -149 0 -278 21
-413 66 -118 40 -148 39 -187 -8 -18 -21 -25 -41 -25 -70 0 -61 35 -89 166
-131 306 -98 623 -97 934 5 336 109 653 374 829 692 138 249 209 572 181 814
-30 247 -154 594 -360 1002 -376 744 -886 1420 -1105 1464 -23 5 -47 -1 -94
-25z"/>
<path d="M478 2543 c-54 -34 -65 -112 -22 -162 36 -43 175 -146 243 -181 91
-45 166 -64 261 -63 97 1 159 20 256 80 213 131 252 145 339 118 28 -8 93 -42
145 -76 171 -110 270 -141 391 -119 82 15 129 36 234 104 117 76 137 85 216
101 78 14 103 32 119 80 9 26 8 41 -4 68 -21 51 -65 71 -138 63 -86 -9 -153
-36 -271 -110 -131 -82 -163 -96 -225 -96 -55 0 -104 22 -243 111 -115 74
-180 94 -294 93 -109 -1 -164 -20 -292 -101 -128 -81 -179 -103 -240 -103 -94
0 -193 48 -315 153 -67 56 -115 69 -160 40z"/>
<path d="M459 2101 c-32 -32 -39 -88 -16 -127 35 -60 213 -188 324 -231 59
-24 83 -27 183 -27 109 -1 119 1 182 31 36 17 102 54 145 82 95 61 139 80 211
92 65 10 99 38 108 87 9 45 -18 96 -58 113 -18 7 -54 10 -97 6 -80 -7 -164
-42 -263 -110 -93 -64 -142 -87 -198 -94 -94 -11 -232 51 -340 152 -70 66
-132 75 -181 26z"/>
<path d="M2425 2110 c-34 -11 -99 -43 -145 -71 -145 -89 -187 -110 -246 -119
-67 -11 -101 -38 -110 -88 -9 -45 18 -96 58 -113 17 -7 54 -10 93 -7 73 6 153
41 299 133 168 104 219 101 416 -26 130 -83 183 -102 287 -107 79 -4 105 -1
175 21 101 32 187 82 283 164 86 73 105 111 82 166 -19 44 -52 67 -98 67 -31
0 -50 -11 -115 -66 -101 -83 -201 -134 -281 -141 -72 -7 -112 9 -268 106 -55
34 -129 71 -164 81 -81 25 -186 25 -266 0z"/>
<path d="M494 1696 c-43 -19 -64 -53 -64 -100 0 -36 7 -46 58 -96 60 -59 148
-123 220 -159 54 -28 182 -61 234 -61 84 0 141 65 118 135 -16 50 -42 67 -126
81 -95 17 -181 57 -258 121 -94 78 -100 82 -126 87 -14 3 -39 -1 -56 -8z"/>
<path d="M1454 1696 c-17 -8 -39 -24 -48 -37 -21 -30 -21 -88 0 -118 19 -27
71 -51 111 -51 36 0 106 -34 216 -103 106 -67 179 -96 263 -104 105 -10 184
16 333 110 128 81 166 97 231 97 65 0 103 -16 225 -95 141 -92 191 -109 310
-109 107 -1 162 13 265 64 113 57 254 178 265 229 15 68 -58 141 -125 126 -16
-4 -55 -30 -87 -58 -117 -104 -207 -148 -308 -150 -66 -1 -118 20 -228 95
-137 93 -261 127 -384 108 -84 -14 -141 -39 -268 -120 -180 -114 -222 -114
-408 6 -102 66 -162 94 -236 110 -81 17 -88 17 -127 0z"/>
<path d="M478 1263 c-54 -34 -65 -112 -22 -162 36 -43 175 -146 243 -181 201
-101 371 -86 571 50 93 63 167 94 225 94 57 0 113 -24 248 -108 121 -75 184
-98 277 -99 96 -1 168 21 274 86 147 91 200 116 254 123 62 8 96 32 112 78 15
47 -7 99 -51 122 -68 35 -203 1 -335 -83 -228 -145 -268 -148 -452 -29 -154
100 -258 134 -371 123 -82 -9 -150 -37 -266 -108 -134 -83 -171 -99 -232 -99
-94 0 -193 48 -315 153 -67 56 -115 69 -160 40z"/>
</g>
</svg>
