<?xml version="1.0" standalone="no"?>
<!DOCTYPE svg PUBLIC "-//W3C//DTD SVG 20010904//EN"
 "http://www.w3.org/TR/2001/REC-SVG-20010904/DTD/svg10.dtd">
<svg version="1.0" xmlns="http://www.w3.org/2000/svg"
 width="512.000000pt" height="512.000000pt" viewBox="0 0 512.000000 512.000000"
 preserveAspectRatio="xMidYMid meet">

<g transform="translate(0.000000,512.000000) scale(0.100000,-0.100000)"
fill="#000000" stroke="none">
<path d="M2350 4319 c-439 -57 -837 -267 -1120 -592 -707 -809 -543 -2042 349
-2639 530 -354 1208 -397 1776 -110 853 429 1215 1474 809 2332 -260 548 -776
927 -1371 1005 -121 16 -336 18 -443 4z m513 -258 c608 -129 1063 -584 1199
-1198 31 -143 32 -464 0 -605 -27 -123 -63 -230 -113 -339 l-41 -86 -81 49
c-181 110 -385 199 -596 260 -100 29 -112 35 -117 58 -25 128 -76 230 -155
310 -64 65 -124 103 -213 136 l-61 22 -5 438 c-4 317 -8 445 -17 460 -36 63
-129 75 -185 25 l-33 -29 -5 -447 -5 -447 -61 -22 c-90 -33 -149 -71 -215
-138 -67 -68 -135 -194 -145 -270 -4 -25 -10 -51 -13 -57 -4 -6 -49 -23 -99
-36 -190 -51 -428 -153 -598 -257 l-92 -56 -40 87 c-50 106 -86 212 -115 339
-18 83 -21 127 -21 302 0 172 4 221 22 303 146 660 666 1137 1332 1221 91 11
377 -3 473 -23z m-168 -1652 c60 -28 123 -89 149 -142 10 -21 16 -40 14 -43
-3 -2 -74 1 -158 6 -84 5 -176 8 -204 5 -28 -2 -93 -7 -144 -10 l-94 -6 8 23
c22 72 105 150 194 182 63 23 170 16 235 -15z m130 -430 c228 -28 475 -99 675
-195 125 -60 270 -143 270 -156 0 -14 -119 -146 -185 -205 -210 -185 -448
-305 -725 -364 -152 -33 -448 -33 -598 -1 -278 61 -518 181 -727 365 -66 59
-185 191 -185 205 0 13 145 96 270 156 364 174 799 245 1205 195z"/>
<path d="M1735 3376 c-125 -56 -125 -241 -1 -297 53 -24 90 -24 140 1 150 73
109 296 -57 307 -30 2 -65 -2 -82 -11z"/>
<path d="M3242 3374 c-63 -32 -101 -109 -88 -179 9 -48 68 -112 116 -126 111
-33 219 57 207 174 -8 83 -64 138 -149 144 -36 2 -64 -2 -86 -13z"/>
<path d="M1442 2763 c-18 -9 -45 -32 -60 -51 -37 -48 -39 -141 -4 -190 90
-125 283 -73 299 81 12 120 -126 214 -235 160z"/>
<path d="M3530 2758 c-33 -17 -51 -35 -68 -68 -73 -141 77 -292 218 -220 51
26 82 72 88 130 12 131 -120 219 -238 158z"/>
<path d="M2079 1637 c-21 -14 -39 -37 -46 -60 -17 -51 1 -104 46 -134 l34 -23
447 0 447 0 34 23 c21 14 39 37 46 60 17 51 -1 104 -46 134 l-34 23 -447 0
-447 0 -34 -23z"/>
</g>
</svg>
