<?xml version="1.0" standalone="no"?>
<!DOCTYPE svg PUBLIC "-//W3C//DTD SVG 20010904//EN"
 "http://www.w3.org/TR/2001/REC-SVG-20010904/DTD/svg10.dtd">
<svg version="1.0" xmlns="http://www.w3.org/2000/svg"
 width="512.000000pt" height="512.000000pt" viewBox="0 0 512.000000 512.000000"
 preserveAspectRatio="xMidYMid meet">

<g transform="translate(0.000000,512.000000) scale(0.100000,-0.100000)"
fill="#000000" stroke="none">
<path d="M2495 4466 c-41 -18 -83 -69 -90 -109 -4 -18 -5 -118 -3 -224 3 -210
5 -218 72 -267 39 -29 133 -29 172 0 68 51 69 53 69 294 0 205 -1 220 -21 246
-11 15 -32 37 -46 47 -33 25 -113 32 -153 13z"/>
<path d="M816 3770 c-42 -13 -95 -68 -107 -112 -20 -78 -3 -108 159 -270 137
-136 150 -147 193 -153 114 -17 208 84 184 197 -6 24 -44 70 -144 171 -75 77
-147 145 -161 152 -37 19 -90 25 -124 15z"/>
<path d="M4205 3765 c-29 -10 -79 -53 -182 -158 -117 -118 -143 -149 -148
-181 -21 -112 79 -212 191 -191 33 6 63 30 186 153 162 162 179 192 159 270
-13 46 -65 99 -112 112 -42 12 -45 12 -94 -5z"/>
<path d="M2394 3510 c-561 -59 -1052 -412 -1286 -926 -178 -388 -194 -810 -46
-1217 l32 -87 315 0 315 0 281 279 c247 247 288 283 345 310 136 63 284 63
420 0 57 -27 98 -63 345 -310 l281 -279 315 0 315 0 32 88 c148 406 132 828
-46 1216 -284 623 -939 997 -1618 926z"/>
<path d="M95 2066 c-97 -43 -124 -171 -54 -251 45 -51 78 -57 301 -53 215 3
223 5 272 72 29 39 29 133 0 172 -50 67 -55 69 -282 71 -157 2 -214 0 -237
-11z"/>
<path d="M4575 2066 c-97 -43 -124 -171 -54 -251 45 -51 78 -57 301 -53 215 3
223 5 272 72 29 39 29 133 0 172 -50 67 -55 69 -282 71 -157 2 -214 0 -237
-11z"/>
<path d="M2500 1589 c-14 -5 -164 -149 -335 -319 l-310 -310 -877 -2 c-868 -3
-877 -3 -904 -24 -53 -39 -69 -71 -69 -134 0 -63 16 -95 69 -134 27 -21 36
-21 939 -24 502 -1 928 0 947 3 29 5 81 53 318 288 l282 282 283 -282 c236
-235 288 -283 317 -288 19 -3 445 -4 947 -3 903 3 912 3 939 24 53 39 69 71
69 134 0 63 -16 95 -69 134 -27 21 -36 21 -904 24 l-877 2 -310 310 c-170 170
-323 314 -338 320 -35 12 -83 12 -117 -1z"/>
</g>
</svg>
