<?xml version="1.0" standalone="no"?>
<!DOCTYPE svg PUBLIC "-//W3C//DTD SVG 20010904//EN"
 "http://www.w3.org/TR/2001/REC-SVG-20010904/DTD/svg10.dtd">
<svg version="1.0" xmlns="http://www.w3.org/2000/svg"
 width="512.000000pt" height="512.000000pt" viewBox="0 0 512.000000 512.000000"
 preserveAspectRatio="xMidYMid meet">

<g transform="translate(0.000000,512.000000) scale(0.100000,-0.100000)"
fill="#000000" stroke="none">
<path d="M2469 5087 c-69 -46 -70 -49 -67 -459 3 -352 4 -368 24 -394 39 -53
71 -69 134 -69 63 0 95 16 134 69 20 26 21 42 24 394 2 334 1 370 -15 402 -27
53 -75 80 -143 80 -43 0 -66 -6 -91 -23z"/>
<path d="M823 4409 c-43 -12 -98 -68 -113 -114 -26 -79 -20 -88 253 -363 139
-140 264 -260 279 -268 35 -18 101 -18 136 0 40 21 78 66 92 109 23 72 9 90
-259 361 -281 283 -303 299 -388 275z"/>
<path d="M4205 4409 c-32 -9 -516 -484 -541 -531 -18 -35 -18 -101 1 -137 20
-39 68 -78 110 -90 74 -20 91 -8 359 257 278 276 297 302 276 378 -15 54 -68
110 -118 123 -43 12 -46 12 -87 0z"/>
<path d="M2420 3834 c-200 -26 -408 -102 -565 -207 -83 -56 -108 -77 -203
-170 -172 -170 -294 -396 -348 -647 -26 -119 -26 -381 0 -500 110 -512 494
-896 1006 -1006 119 -26 381 -26 500 0 513 111 895 493 1006 1006 26 119 26
381 0 500 -111 513 -494 896 -1006 1006 -73 15 -320 27 -390 18z"/>
<path d="M94 2706 c-49 -22 -78 -71 -82 -141 -3 -50 0 -66 20 -95 47 -70 49
-71 460 -68 352 3 368 4 394 24 53 39 69 71 69 134 0 63 -16 95 -69 134 -26
20 -41 21 -394 23 -293 2 -373 0 -398 -11z"/>
<path d="M4255 2706 c-94 -41 -124 -168 -58 -247 49 -58 58 -59 445 -59 316 0
357 2 388 18 53 26 80 74 80 142 0 68 -27 116 -80 142 -31 16 -71 18 -390 18
-273 -1 -362 -4 -385 -14z"/>
<path d="M1285 1470 c-16 -4 -39 -11 -50 -17 -11 -7 -133 -125 -271 -265 -271
-273 -276 -280 -252 -359 14 -50 71 -106 118 -119 79 -21 86 -16 358 254 140
138 260 264 269 280 20 39 19 110 -4 148 -35 59 -104 92 -168 78z"/>
<path d="M3785 1470 c-63 -14 -115 -61 -135 -123 -23 -74 -6 -97 278 -379 207
-206 264 -256 291 -262 106 -20 216 87 196 192 -6 31 -44 75 -258 290 -139
139 -261 258 -271 264 -33 18 -70 25 -101 18z"/>
<path d="M2495 946 c-37 -17 -70 -52 -84 -89 -7 -18 -11 -155 -11 -380 0 -315
2 -356 18 -386 27 -53 63 -74 135 -79 52 -3 67 0 97 20 70 47 71 49 68 460 -3
352 -4 368 -24 394 -11 15 -32 37 -46 47 -34 25 -113 32 -153 13z"/>
</g>
</svg>
